<svg xmlns="http://www.w3.org/2000/svg" viewBox="0 0 1226.29 194.73"><defs><style>.cls-1{fill:#fff;}</style></defs><g id="Layer_2" data-name="Layer 2"><g id="Layer_6" data-name="Layer 6"><path class="cls-1" d="M.05,0,96.6,0c63.65,0,86.09,47.1,86.08,95.23C182.66,153.8,151.62,191,85,191l-85,0Zm58.8,142h23c36.63,0,42-29.67,42-47.59,0-12-3.74-45.45-46.26-45.46H58.86Z"/><path class="cls-1" d="M328.9,160c0,10.41.52,22.2,6.4,31l-54,0a37.15,37.15,0,0,1-1.88-13.1h-.54c-11.22,12.84-27.53,16.56-44.65,16.56-26.74,0-48.94-12.83-48.93-42,0-43.82,51.36-42.21,78.37-47.26,7.23-1.34,14.44-3.48,14.44-12.31,0-9.36-8.82-12.84-17.37-12.84-16.32,0-19.53,8.27-19.8,14.17l-49.2,0c.81-19.51,10.43-31,24.08-37.42,13.37-6.43,31-8,47.33-8,66.32,0,65.77,27.56,65.76,54.29Zm-50.81-31.3c-6.42,3.19-13.64,5.09-20.85,6.68-11.78,2.67-17.92,5.62-17.93,15,0,6.4,6.95,12.8,16.58,12.82,12,0,21.4-7.2,22.19-21.64Z"/><path class="cls-1" d="M412.5,52.25l28.35,0V84.9H412.49l0,48.4c0,12.83,3,18.45,16.32,18.45a90,90,0,0,0,12-.8l0,40.12c-10.69,0-22.72,1.59-33.95,1.59-22.46,0-47.33-3.49-47.32-41.47l0-66.3H336V52.23l23.54,0V10h52.95Z"/><path class="cls-1" d="M592.42,160.07c0,10.44.53,22.19,6.41,31l-54,0A37,37,0,0,1,543,178h-.53c-11.24,12.85-27.54,16.6-44.67,16.58-26.74,0-48.93-12.87-48.93-42,0-43.84,51.36-42.22,78.36-47.31,7.24-1.34,14.45-3.47,14.45-12.3,0-9.34-8.82-12.82-17.38-12.82-16.31,0-19.52,8.29-19.79,14.15h-49.2c.8-19.53,10.43-31,24.08-37.43,13.37-6.43,31-8,47.34-8,66.3,0,65.76,27.56,65.74,54.3Zm-50.79-31.3c-6.43,3.21-13.65,5.08-20.87,6.68-11.77,2.67-17.91,5.61-17.91,15,0,6.42,6.94,12.85,16.57,12.85,12,0,21.39-7.22,22.19-21.67Z"/><path class="cls-1" d="M612.45.18h58.84V66h.53L724.24.19l72.46,0-69.27,74.6,80.45,116.35-73.26,0L687.56,116.8l-16.3,17.91,0,56.42-58.82,0Z"/><path class="cls-1" d="M863.27,37.42l-52.95,0V.21l52.95,0Zm-53,14.95h53l0,138.79-53,0Z"/><path class="cls-1" d="M883.58,52.4h51.06V70h.54c9.9-13.87,24.08-21.1,45.21-21.08C1005.24,49,1028,64.21,1028,96l0,95.21-53,0,0-72.74c0-16-1.87-27.26-17.39-27.29-9.07,0-21.11,4.55-21.11,26.75l0,73.26h-53Z"/><path class="cls-1" d="M1188.74,191.15l-51.08.06,0-15.25h-.53c-6.67,8.85-14.68,18.75-40.62,18.78-39.32.06-58.32-38.7-58.4-73.45,0-32.63,12.5-72.21,59-72.29,15.8,0,30,6.94,38,18.68h.54L1135.56.28l53-.07ZM1114.27,87.49c-19,0-23.22,18-23.21,34.25,0,16.58,4.31,34.49,23.31,34.47s23.24-17.94,23.24-34.52C1137.58,105.37,1133.26,87.46,1114.27,87.49Z"/><path class="cls-1" d="M1195.57,9.79a15.67,15.67,0,0,1,3.47-5,16.16,16.16,0,0,1,5.1-3.34,15.93,15.93,0,0,1,6.19-1.22,15.76,15.76,0,0,1,6.17,1.22A15.78,15.78,0,0,1,1225,9.79a15.16,15.16,0,0,1,1.28,6.25,15.59,15.59,0,0,1-1.28,6.37,16.25,16.25,0,0,1-3.44,5.06,15.54,15.54,0,0,1-5.07,3.34,16.11,16.11,0,0,1-6.17,1.19,16.28,16.28,0,0,1-6.19-1.19,15.67,15.67,0,0,1-5.1-3.34A15.79,15.79,0,0,1,1194.29,16,15.32,15.32,0,0,1,1195.57,9.79Zm2.61,11.68a13.29,13.29,0,0,0,2.77,4.32,12.87,12.87,0,0,0,9.38,3.91,12.61,12.61,0,0,0,5.15-1,12.81,12.81,0,0,0,4.15-2.87,13.29,13.29,0,0,0,2.77-4.32,14.57,14.57,0,0,0,1-5.43,14.18,14.18,0,0,0-1-5.32,13.06,13.06,0,0,0-2.77-4.27,12.91,12.91,0,0,0-4.15-2.85,12.62,12.62,0,0,0-5.15-1.05,13,13,0,0,0-9.38,3.9,13.06,13.06,0,0,0-2.77,4.27,14.18,14.18,0,0,0-1,5.32A14.57,14.57,0,0,0,1198.18,21.47Zm13.13-14.66a7.63,7.63,0,0,1,4.92,1.32,4.9,4.9,0,0,1,1.59,4,4.54,4.54,0,0,1-1.4,3.68,6.31,6.31,0,0,1-3.49,1.38l5.32,8.22h-3.11l-5.06-8H1207v8h-2.89V6.81ZM1210,15.06c.65,0,1.27,0,1.85-.06a4.58,4.58,0,0,0,1.55-.36,2.44,2.44,0,0,0,1.09-.92,3.19,3.19,0,0,0,.4-1.72,2.72,2.72,0,0,0-.36-1.49,2.47,2.47,0,0,0-.94-.85,4,4,0,0,0-1.32-.4,10.39,10.39,0,0,0-1.47-.11H1207v5.91Z"/></g></g></svg>